<svg width="128" height="128" fill="none" xmlns="http://www.w3.org/2000/svg"><path d="M64 0C28.71 0 0 28.711 0 64s28.711 64 64 64 64-28.711 64-64S99.289 0 64 0zm0 116.869c-29.15 0-52.87-23.719-52.87-52.87C11.13 34.85 34.85 11.13 64 11.13S116.869 34.85 116.869 64s-23.719 52.869-52.87 52.869z" fill="#fff"/><path d="M93.796 34.21a2.76 2.76 0 00-3.067-.59L51.773 50.314a2.788 2.788 0 00-1.464 1.464L33.614 90.735a2.78 2.78 0 00.59 3.067 2.823 2.823 0 001.97.806c.367 0 .74-.078 1.096-.222L76.226 77.69a2.807 2.807 0 001.464-1.463L94.386 37.27a2.788 2.788 0 00-.59-3.06zM64 69.564A5.574 5.574 0 0158.434 64 5.574 5.574 0 0164 58.435 5.574 5.574 0 0169.565 64 5.574 5.574 0 0164 69.565z" fill="#fff"/></svg>