<svg width="128" height="128" fill="none" xmlns="http://www.w3.org/2000/svg"><path d="M64 118.666C33.856 118.666 9.333 94.144 9.333 64S33.856 9.333 64 9.333c30.144 0 54.666 24.523 54.666 54.667 0 30.144-24.522 54.666-54.666 54.666zM64 20c-24.262 0-44 19.738-44 44 0 24.261 19.738 44 44 44 24.261 0 44-19.739 44-44 0-24.262-19.739-44-44-44z" fill="#fff"/><path d="M64 29.333A5.335 5.335 0 0158.667 24V5.333A5.335 5.335 0 0164 0a5.335 5.335 0 015.334 5.333V24A5.335 5.335 0 0164 29.333zm58.667 40.001H104A5.335 5.335 0 0198.667 64 5.335 5.335 0 01104 58.667h18.667A5.335 5.335 0 01128 64a5.335 5.335 0 01-5.333 5.334zM64 128a5.335 5.335 0 01-5.333-5.333V104A5.335 5.335 0 0164 98.667 5.335 5.335 0 0169.334 104v18.667A5.335 5.335 0 0164 128zM24 69.334H5.333A5.335 5.335 0 010 64a5.335 5.335 0 015.333-5.333H24A5.335 5.335 0 0129.333 64 5.335 5.335 0 0124 69.334zM64 80c-8.821 0-16-7.179-16-16s7.179-16 16-16 16 7.179 16 16-7.179 16-16 16zm0-21.333A5.342 5.342 0 0058.667 64 5.342 5.342 0 0064 69.333 5.342 5.342 0 0069.333 64 5.342 5.342 0 0064 58.667z" fill="#fff"/></svg>