<svg width="129" height="129" fill="none" xmlns="http://www.w3.org/2000/svg"><path opacity=".4" d="M64.305 128.611c35.515 0 64.306-28.79 64.306-64.305C128.611 28.79 99.821 0 64.306 0 28.79 0 0 28.79 0 64.305c0 35.515 28.79 64.306 64.305 64.306z" fill="#fff"/><path opacity=".3" d="M64.5 117c28.995 0 52.5-23.505 52.5-52.5S93.495 12 64.5 12 12 35.505 12 64.5 35.505 117 64.5 117z" fill="#fff"/><path d="M46 49.795c0-4.533 5.082-7.306 9.019-4.92L79.245 59.56a5.723 5.723 0 010 9.839L55.02 84.083C51.082 86.47 46 83.697 46 79.164v-29.37z" fill="#141821"/></svg>