<svg width="193" height="89" fill="none" xmlns="http://www.w3.org/2000/svg"><g clip-path="url(#clip0_1_126)"><path d="M193 74.616V14.384C193 6.44 186.54 0 178.57 0H14.43C6.46 0 0 6.44 0 14.384v60.232C0 82.56 6.46 89 14.43 89h164.14c7.97 0 14.43-6.44 14.43-14.384z" fill="#fff" fill-opacity=".35"/><path d="M10.822 21.576v45.848c0 5.958 4.846 10.788 10.823 10.788h149.71c5.977 0 10.823-4.83 10.823-10.788V21.576c0-5.958-4.846-10.788-10.823-10.788H21.645c-5.977 0-10.823 4.83-10.823 10.788z" fill="#fff" fill-opacity=".3"/><path d="M27.056 44.285c.274-.9.773-1.695 1.194-2.526.44-.867.418-1.792.352-2.725a7.952 7.952 0 01-.006-1.15c.056-.81.418-1.46 1.039-1.979.388-.325.798-.621 1.216-.905a4.512 4.512 0 001.695-2.12c.155-.393.343-.774.513-1.163.454-1.044 1.276-1.607 2.382-1.8.38-.067.756-.147 1.135-.205.964-.149 1.781-.58 2.488-1.242.28-.263.584-.5.875-.751.834-.718 1.786-.903 2.842-.624.305.08.612.146.908.245a5.082 5.082 0 003.283.003c.49-.16.991-.284 1.506-.35.724-.092 1.363.093 1.95.505.35.245.688.508.987.809.872.875 1.928 1.344 3.146 1.494.36.044.715.143 1.07.223.88.202 1.498.73 1.889 1.527.207.425.412.853.584 1.295.36.911.936 1.637 1.753 2.187.421.281.826.582 1.214.914.648.552.972 1.245 1.008 2.087.025.536-.014 1.071-.047 1.604-.061.928.155 1.778.612 2.58.205.358.393.728.584 1.092.513.975.51 1.953 0 2.927-.138.268-.26.55-.424.8-.692 1.07-.886 2.235-.745 3.477.045.392.034.787.006 1.179-.064.928-.557 1.602-1.274 2.14-.333.248-.662.5-1.006.734a4.428 4.428 0 00-1.656 2.077c-.158.392-.338.776-.507 1.165-.46 1.055-1.282 1.629-2.401 1.82-.369.063-.737.14-1.106.198-.972.152-1.8.58-2.515 1.254-.28.262-.584.5-.875.75-.837.716-1.79.9-2.842.62-.302-.08-.612-.147-.909-.246a5.1 5.1 0 00-3.282 0 8.224 8.224 0 01-1.476.345c-.743.096-1.404-.092-2.006-.525a7.545 7.545 0 01-.96-.792c-.873-.876-1.929-1.342-3.147-1.491-.36-.045-.715-.144-1.07-.224-.867-.199-1.484-.72-1.872-1.505a18.456 18.456 0 01-.61-1.35 4.529 4.529 0 00-1.695-2.12 14.44 14.44 0 01-1.263-.948c-.64-.544-.96-1.228-1.002-2.06-.028-.587.03-1.17.052-1.753.025-.759-.108-1.482-.47-2.159-.41-.77-.854-1.524-1.114-2.366-.003-.326-.003-.649-.003-.972zm5.676.464c0 6.95 5.648 12.577 12.633 12.563 6.861-.014 12.407-5.5 12.567-12.232.166-7.043-5.476-12.703-12.312-12.85-7.14-.154-12.888 5.594-12.888 12.519zm61.215-6.373c2.125-3.595 8.284-3.72 10.262.16.119-.016.142-.13.191-.207 1.211-1.778 2.925-2.604 5.053-2.659 1.324-.033 2.587.185 3.731.881 1.711 1.044 2.623 2.612 2.939 4.553.099.61.124 1.223.122 1.842-.003 3.385-.006 6.77.005 10.155 0 .254-.044.342-.324.334a51.29 51.29 0 00-2.437-.003c-.241.006-.3-.06-.297-.298.009-3.476.006-6.952.006-10.429 0-.63-.086-1.248-.305-1.841-.576-1.569-2.063-2.433-3.834-2.311-1.994.135-3.493 1.408-3.839 3.738a11.51 11.51 0 00-.116 1.69c.003 3.043-.003 6.083.008 9.125 0 .27-.066.334-.332.329-.793-.02-1.585-.02-2.376 0-.272.005-.352-.058-.352-.343.011-3.487.008-6.971.005-10.459 0-.891-.155-1.75-.64-2.515-.77-1.212-1.933-1.648-3.31-1.554-2.182.152-3.692 1.565-4.038 3.722a9.91 9.91 0 00-.125 1.568c.003 3.081-.003 6.163.008 9.247 0 .29-.088.342-.352.337a57.05 57.05 0 00-2.376 0c-.263.005-.335-.053-.333-.326.01-5.174.01-10.349.01-15.52 0-.414.01-.828-.007-1.243-.008-.21.07-.245.258-.243.853.009 1.706.009 2.56 0 .182-.002.243.04.24.232-.013.652-.005 1.31-.005 2.038zm-9.272.584c0-.868.006-1.732-.003-2.599-.002-.188.036-.262.247-.26.853.014 1.706.012 2.56 0 .204-.002.249.064.249.257-.006 5.608-.006 11.216 0 16.826 0 .205-.064.252-.258.249a96.903 96.903 0 00-2.529 0c-.21.003-.274-.05-.271-.265.013-.864.005-1.729.005-2.67-.33.43-.61.806-.936 1.146-1.313 1.36-2.939 2.046-4.803 2.192-2.554.199-4.812-.497-6.698-2.261-2.357-2.206-3.249-4.946-2.842-8.096.438-3.388 2.285-5.834 5.415-7.162 2.565-1.088 5.172-.942 7.62.502.904.539 1.599 1.304 2.244 2.14zm-12.323 5.8c0 3.52 2.64 6.174 6.127 6.199 3.534.025 6.14-2.75 6.21-6.044.072-3.545-2.67-6.356-6.19-6.337-3.496.022-6.147 2.67-6.147 6.182zm90.792 5.724c-.479.687-.966 1.25-1.545 1.728-1.23 1.016-2.663 1.519-4.238 1.632-2.543.185-4.787-.516-6.665-2.275-2.177-2.038-3.061-4.559-2.908-7.497.219-4.216 3.482-7.634 7.088-8.25 2.421-.414 4.712-.105 6.698 1.486.595.475 1.085 1.049 1.57 1.753v-2.407c0-.544 0-.544.557-.544.731 0 1.462.01 2.193-.006.241-.005.302.06.302.298-.008 4.355-.005 8.711-.005 13.066 0 1.234-.005 2.465.005 3.7.003.212-.055.27-.271.267a83.205 83.205 0 00-2.498 0c-.219.003-.294-.041-.291-.279.017-.855.008-1.714.008-2.672zm-12.326-5.724c0 3.523 2.637 6.177 6.127 6.199 3.535.024 6.154-2.75 6.21-6.072.055-3.537-2.686-6.326-6.188-6.306-3.501.019-6.149 2.664-6.149 6.179zm-17.383 5.732c-.509.727-1.033 1.323-1.662 1.82-1.26.994-2.715 1.472-4.302 1.54-3.91.172-6.697-1.604-8.495-4.989-.787-1.482-1.003-3.106-.886-4.76.224-3.239 1.74-5.762 4.573-7.333 2.917-1.615 5.911-1.574 8.789.229.794.497 1.399 1.21 1.983 2.051v-1.339c0-.463.006-.93-.003-1.394-.002-.152.037-.213.202-.21.884.008 1.767.008 2.648 0 .166-.003.219.058.2.21-.006.039 0 .08 0 .121 0 5.556-.003 11.114.005 16.67 0 .256-.047.341-.326.333a56.588 56.588 0 00-2.465-.003c-.222.003-.269-.066-.266-.273.011-.861.005-1.717.005-2.673zm0-5.707c0-3.537-2.64-6.198-6.152-6.201-3.515-.003-6.174 2.659-6.174 6.185 0 3.509 2.656 6.184 6.141 6.184 3.532 0 6.185-2.645 6.185-6.168zm9.282-5.975c.429-.668.87-1.29 1.477-1.778 1.088-.884 2.368-1.188 3.736-1.23.155-.005.214.04.214.203-.006.919-.011 1.838.002 2.758.003.237-.136.199-.274.199-1.011-.006-1.964.21-2.856.704-1.307.723-1.98 1.855-2.207 3.294a8.547 8.547 0 00-.092 1.328c.003 2.94-.003 5.88.008 8.821 0 .265-.06.34-.332.332a44.214 44.214 0 00-2.346 0c-.296.008-.388-.053-.388-.37.012-5.487.009-10.976.009-16.462 0-.09.008-.182-.003-.273-.017-.163.03-.232.213-.23.873.009 1.745.012 2.621 0 .215-.002.218.1.218.258-.003.811 0 1.628 0 2.446z" fill="#141820"/><path d="M32.731 44.75c0-6.923 5.748-12.674 12.889-12.522 6.836.146 12.478 5.806 12.312 12.85-.158 6.734-5.706 12.22-12.567 12.231-6.986.014-12.634-5.613-12.634-12.56zm12.587 11.844c6.57 0 11.891-5.284 11.9-11.795.008-6.508-5.247-11.693-11.57-11.856-6.693-.174-12.205 5.207-12.202 11.8.003 6.561 5.302 11.851 11.872 11.851z" fill="#141820"/><path d="M45.319 56.594c-6.57 0-11.87-5.29-11.872-11.853-.003-6.594 5.512-11.972 12.201-11.801 6.324.163 11.578 5.348 11.57 11.856-.008 6.513-5.33 11.798-11.9 11.798zm3.273-16.94c-1.484-1.72-3.334-2.167-5.415-1.86-1.955.287-3.373 1.417-4.412 3.026-1.053 1.63-1.272 3.432-.989 5.318.415 2.764 2.847 5.553 6.058 5.69 1.515.067 2.922-.242 4.1-1.27.218-.19.418-.4.659-.635 0 .442.01.854-.006 1.262-.008.21.047.27.263.268.975-.011 1.95-.014 2.922.003.241.003.275-.075.275-.287-.009-2.06-.006-4.123-.006-6.182v-6.638c0-.138.036-.268-.202-.265-1.014.014-2.03.011-3.044.003-.189-.003-.21.074-.208.232.011.42.005.839.005 1.336z" fill="#141820"/><path d="M44.855 40.98c2.225.012 3.748 1.594 3.737 3.883-.011 2.148-1.612 3.708-3.767 3.702-2.205-.008-3.784-1.695-3.706-3.976.066-2.06 1.631-3.62 3.736-3.609z" fill="#141820"/></g><defs><clipPath id="clip0_1_126"><path fill="#fff" d="M0 0h193v89H0z"/></clipPath></defs></svg>