<svg width="193" height="89" fill="none" xmlns="http://www.w3.org/2000/svg"><g clip-path="url(#clip0_1_150)"><path d="M193 74.616V14.384C193 6.44 186.54 0 178.57 0H14.43C6.46 0 0 6.44 0 14.384v60.232C0 82.56 6.46 89 14.43 89h164.14c7.97 0 14.43-6.44 14.43-14.384z" fill="#fff" fill-opacity=".35"/><path d="M10.822 21.576v45.848c0 5.958 4.846 10.788 10.823 10.788h149.71c5.977 0 10.823-4.83 10.823-10.788V21.576c0-5.958-4.846-10.788-10.823-10.788H21.645c-5.977 0-10.823 4.83-10.823 10.788z" fill="#fff" fill-opacity=".3"/><path d="M62.555 26.997l-.705 2.301c-1.194 3.895-2.388 7.79-3.59 11.684-.065.215-.054.275.194.302 1.273.142 2.541.308 3.812.458.145.016.23.07.306.193.953 1.574 1.907 3.151 2.874 4.717.115.185 0 .27-.087.379l-5.222 6.52c-2.333 2.91-4.663 5.825-7 8.736-.081.104-.139.243-.333.289.131-.428.252-.825.377-1.223 1.339-4.308 2.675-8.614 4.022-12.92.074-.231.05-.291-.2-.319-1.243-.138-2.48-.302-3.72-.446-.197-.022-.318-.085-.424-.262a529.914 529.914 0 00-2.798-4.591c-.104-.17-.098-.273.03-.436 4.068-5.052 8.128-10.107 12.188-15.164.069-.085.14-.164.21-.245.025.013.044.019.066.027z" fill="#141820"/><path d="M55.438 60.773c.981-1.225 1.94-2.421 2.897-3.622.114-.144.267-.117.41-.128 1.945-.163 3.764-.727 5.41-1.77 3.444-2.182 5.447-5.29 5.838-9.35.538-5.583-2.83-10.785-8.148-12.664-.221-.079-.29-.147-.21-.39.339-1.048.661-2.104.97-3.161.071-.24.161-.272.388-.19 4.022 1.432 7.087 3.997 9.09 7.75 3.265 6.125 2.267 13.508-2.503 18.58-2.677 2.848-5.989 4.515-9.888 5.005a16.753 16.753 0 01-4.128-.022c-.027 0-.052-.013-.126-.038zm4.498-31.985L58.7 30.333c-.544.678-1.09 1.35-1.629 2.031a.524.524 0 01-.396.218c-5.445.512-9.83 4.292-10.972 9.625-.883 4.12.175 7.789 3.014 10.92 1.35 1.49 3.005 2.547 4.904 3.22.158.057.213.103.153.286a177.362 177.362 0 00-1.025 3.3c-.063.21-.153.194-.317.134-4.03-1.446-7.073-4.039-9.084-7.805-1.525-2.854-2.131-5.918-1.754-9.121.661-5.646 3.546-9.864 8.532-12.615 2.877-1.588 6-2.124 9.27-1.814.16.02.318.047.539.076zm86.032 24.25c-1.27 0-2.519-.002-3.77.003-.202 0-.189-.144-.224-.253-.399-1.25-.801-2.498-1.181-3.753-.065-.218-.161-.27-.374-.27-1.871.008-3.743.008-5.618 0-.204 0-.292.052-.354.25-.389 1.264-.795 2.523-1.183 3.784-.055.182-.132.242-.329.242-1.168-.01-2.341-.005-3.554-.005.167-.485.322-.943.481-1.4 1.844-5.292 3.689-10.58 5.525-15.872.082-.235.18-.314.434-.31 1.262.015 2.522.01 3.784.002.186 0 .273.043.339.231 1.986 5.703 3.978 11.406 5.969 17.106.022.077.033.155.055.245zm-8.355-14.227c-.033.063-.06.103-.073.15-.714 2.274-1.421 4.55-2.142 6.822-.074.229.021.218.185.218 1.35-.003 2.702-.005 4.052.003.221 0 .265-.033.192-.262-.668-2.091-1.321-4.186-1.979-6.28-.069-.212-.104-.439-.235-.65zm-33.104 4.116c0-.466-.003-.929 0-1.395.002-.376.013-.754.021-1.13.385-.068.774-.014 1.159-.03.049-.003.101.006.15-.003.169-.024.222.041.216.21-.013.338-.002.678-.002 1.016v11.152c0 2.566-1.52 4.385-4.066 4.84-1.544.275-3.052.185-4.467-.548-1.08-.56-1.869-1.38-2.197-2.587-.055-.198-.046-.28.197-.27.42.02.841.006 1.262.006.088 0 .17-.016.219.098.505 1.21 1.51 1.754 2.732 1.966.912.158 1.817.09 2.677-.272 1.279-.54 1.94-1.53 2.003-2.895.041-.885.008-1.773.008-2.74-.265.531-.536.975-.899 1.354-2.199 2.271-6.035 1.86-7.75-.834-.878-1.378-1.132-2.913-1.091-4.515.032-1.217.276-2.386.844-3.475 1.637-3.137 5.501-3.355 7.514-1.73.303.246.579.518.819.828.23.297.422.621.651.954zm-.085 3.84c-.003-1.03-.139-1.961-.555-2.83-.696-1.462-1.833-2.32-3.495-2.334-1.646-.014-2.808.803-3.45 2.271-.808 1.847-.808 3.742.003 5.592.615 1.4 1.732 2.2 3.29 2.25 1.532.046 2.694-.64 3.461-1.956.549-.945.732-1.988.746-2.993zm47.04-2.509c0 2.83-.003 5.66.005 8.492 0 .228-.05.3-.29.297a147.779 147.779 0 00-3.123-.003c-.207.003-.292-.027-.292-.27.008-5.69.008-11.381.003-17.07 0-.2.057-.245.251-.245 1.06.008 2.122.013 3.183-.003.235-.003.271.068.271.28-.008 2.844-.008 5.681-.008 8.522zm-40.885-1.686c.358-.594.754-1.117 1.298-1.525 1.855-1.387 4.912-1.144 6.363.517.792.907 1.102 1.994 1.107 3.17.011 2.672 0 5.34.008 8.013 0 .228-.049.313-.295.3a11.68 11.68 0 00-1.112-.004c-.2.009-.251-.054-.249-.25.008-1.196.006-2.391.006-3.587 0-1.435.032-2.87-.008-4.306-.069-2.442-1.771-3.56-4.003-3.238-1.817.262-3 1.596-3.084 3.426-.088 1.912-.02 3.827-.034 5.739-.005.648-.008 1.296.003 1.944.003.196-.032.286-.257.275-.399-.019-.8-.01-1.201-.003-.14.003-.211-.035-.192-.182.006-.05 0-.1 0-.15 0-5.64.002-11.28-.006-16.92 0-.248.034-.357.318-.333.347.03.701.025 1.049 0 .251-.019.286.08.286.3-.008 2.162-.005 4.325-.005 6.487.008.109.008.218.008.327zm-32.474 1.653c0-2.821.003-5.64-.005-8.461 0-.248.055-.322.306-.305.38.024.76.016 1.142.002.18-.005.243.036.237.23-.013.506-.005 1.015-.005 1.524 0 4.655.003 9.31-.008 13.963 0 .275.074.335.341.335 2.703-.01 5.407-.005 8.11-.005.387 0 .387 0 .387.403 0 .259-.027.52.006.776.04.322-.093.37-.38.365-1.06-.016-2.123-.005-3.183-.005-2.191 0-4.385-.008-6.576.008-.328.003-.38-.098-.377-.392.008-2.816.005-5.627.005-8.438zm44.64 1.978c0-1.405-.005-2.81.006-4.216.002-.223-.053-.286-.279-.275-.459.02-.921 0-1.383.008-.175.003-.254-.03-.243-.226a9.861 9.861 0 000-.926c-.005-.158.047-.204.202-.201.49.008.981-.008 1.473.008.194.005.227-.057.227-.234-.008-.896.003-1.795-.011-2.691-.003-.215.06-.264.264-.256.381.016.763.016 1.143 0 .194-.008.229.054.226.234-.008.896.003 1.795-.01 2.69-.003.216.06.262.265.257.669-.014 1.341.003 2.011-.01.199-.004.259.053.245.247-.016.267-.019.54 0 .806.016.226-.043.31-.289.302-.669-.019-1.341 0-2.011-.01-.164-.003-.221.035-.219.21.006 2.649.003 5.302.006 7.952 0 .247.027.498.09.738.175.661.591 1.015 1.276 1.056.339.02.68.006 1.019-.008.142-.005.194.027.189.177-.011.338-.006.678-.003 1.016 0 .106 0 .185-.148.199-.688.065-1.38.103-2.062-.03-1.15-.226-1.768-.926-1.924-2.135a7.95 7.95 0 01-.065-1.013c.008-1.218.005-2.443.005-3.669zm-31.955.479c0-2.013.002-4.025-.006-6.04 0-.221.05-.292.279-.281.368.022.74.016 1.112 0 .207-.008.27.046.267.259-.01 1.105-.005 2.211-.005 3.32 0 2.93-.003 5.86.005 8.79 0 .246-.054.33-.308.317a9.576 9.576 0 00-1.082 0c-.21.01-.268-.055-.268-.265.008-2.034.005-4.068.005-6.1zm1.915-9.946a1.081 1.081 0 01-1.07 1.092 1.083 1.083 0 01-1.099-1.065 1.074 1.074 0 011.073-1.087 1.066 1.066 0 011.096 1.06z" fill="#141820"/></g><defs><clipPath id="clip0_1_150"><path fill="#fff" d="M0 0h193v89H0z"/></clipPath></defs></svg>