<svg width="193" height="89" fill="none" xmlns="http://www.w3.org/2000/svg"><g clip-path="url(#clip0_1_164)"><path d="M193 74.616V14.384C193 6.44 186.54 0 178.57 0H14.43C6.46 0 0 6.44 0 14.384v60.232C0 82.56 6.46 89 14.43 89h164.14c7.97 0 14.43-6.44 14.43-14.384z" fill="#fff" fill-opacity=".35"/><path d="M10.822 21.576v45.848c0 5.958 4.846 10.788 10.823 10.788h149.71c5.977 0 10.823-4.83 10.823-10.788V21.576c0-5.958-4.846-10.788-10.823-10.788H21.645c-5.977 0-10.823 4.83-10.823 10.788z" fill="#fff" fill-opacity=".3"/><path d="M60.366 48.972c-.136-.932-.84-1.381-1.521-1.839-.693-.466-1.41-.904-1.923-1.579-.728-.953-1.008-2.009-.503-3.144.723-1.621 2.945-2.08 4.382-.874.437.365.714.433 1.244.187 1.15-.54 2.358-.209 3.23.777 1.163 1.313 1.464 2.846.962 4.49-.799 2.6-2.505 4.392-5.148 5.147-1.79.512-3.553.233-5.186-.674-2.638-1.468-4.366-3.645-4.893-6.629-.766-4.335 1.049-8.408 5.29-10.374 4.191-1.944 8.247-1.49 11.91 1.338 2.186 1.687 3.349 4.048 3.512 6.791.285 4.793-1.93 8.249-6.028 10.599-1.383.793-2.918 1.175-4.45 1.56-.924.233-1.85.455-2.736.818a3.672 3.672 0 00-.853.479c-.16.124-.288.273-.367.46-.065.157-.081.303.074.425.163.128.228-.038.318-.105 1.105-.81 2.363-1.24 3.697-1.482.837-.151 1.679-.205 2.515 0 .354.087.677.236.938.493.679.666.535 1.671-.316 2.191-.584.357-1.238.53-1.904.647-1.624.282-3.243.293-4.843-.168-.128-.038-.169.006-.204.128-.057.186-.014.354.046.52.068.186.182.349.31.503.41.493.462.496 1 .195 1.154-.644 2.376-.95 3.694-.642.551.13 1.008.425 1.285.937.318.588.155 1.059-.46 1.333-.545.243-1.132.29-1.719.298-1.087.013-2.14-.147-3.132-.607-.139-.065-.215-.033-.31.057-.331.306-.489.666-.358 1.118a.392.392 0 01.013.23c-.464-.474-.532-.996-.184-1.605.09-.157.07-.217-.068-.325-.62-.502-1.111-1.084-1.111-1.937 0-.641-.006-.633-.348-1.164-.424-.655-.307-1.305.081-1.925.424-.672 1.084-1.06 1.78-1.398 1.146-.555 2.363-.918 3.57-1.305 1.95-.628 3.702-1.581 5.153-3.038 1.695-1.703 2.632-3.748 2.654-6.163a7.44 7.44 0 00-5.13-7.163c-2.8-.918-5.503-.715-7.942 1.051-1.823 1.322-2.818 3.166-3.173 5.378-.58 3.596 1.803 6.737 4.237 7.972 1.473.747 2.964.726 4.404-.043 1.972-1.056 3.083-2.727 3.255-4.959.078-1.004-.313-1.881-.998-2.618-.5-.539-1.179-.664-1.852-.38-.158.069-.174.12-.1.274.284.596.418 1.213.206 1.869-.28.86-1.033 1.346-1.815 1.161-.714-.168-1.133-.785-1.027-1.51.103-.71.443-1.306.907-1.837.123-.138.134-.219-.01-.349-.503-.455-1.076-.717-1.763-.628-1.185.154-1.829 1.186-1.516 2.388.19.731.64 1.284 1.187 1.777.434.392.888.763 1.31 1.17.453.436.792.942.757 1.613a.23.23 0 00-.03.09zm-1.315 8.378c1.52.06 3.016-.027 4.456-.585-1.554-.344-3.021-.016-4.456.585zm2.195-13.735c-.383.347-.657.737-.78 1.222-.045.184-.029.354.164.463.182.103.358.106.53-.02.16-.116.247-.278.307-.46.138-.43-.017-.806-.22-1.205zM59.508 60.6c1.086.247 2.105.233 3.135-.043-.375-.46-2.252-.363-3.135.044zM98.54 41.77c.046-.644.105-1.29.138-1.94.171-3.423.198-6.849.188-10.277 0-.19.054-.314.203-.425.653-.482 1.359-.439 2.032-.12.921.44 1.451 1.19 1.46 2.235.01 1.113-.175 2.21-.37 3.3-.318 1.769-.419 3.556-.492 5.346-.098 2.402-.206 4.804-.296 7.208-.084 2.245-.214 4.49-.203 6.737.008 1.734.081 3.464.526 5.154.068.257.139.52.256.755.098.2.067.339-.057.504-.411.56-1.019.74-1.658.46a2.94 2.94 0 01-1.233-.999 1.302 1.302 0 01-.25-.745c-.016-.509-.079-1.018-.128-1.6-.426.458-.803.858-1.224 1.216-.794.677-1.647 1.267-2.692 1.451-2.125.374-4.586-.365-5.936-2.81-.655-1.187-.948-2.47-.995-3.81-.125-3.697.677-7.206 2.22-10.556.399-.867.924-1.665 1.64-2.313 1.34-1.213 2.937-1.394 4.542-.546.813.427 1.449 1.072 2.128 1.665.043.038.092.073.138.108 0 .008.014.003.063.003zm-.071 6.137c.022-.715-.02-1.427-.207-2.12-.271-1.008-.684-1.945-1.512-2.632-1.033-.859-2.326-.75-3.206.249a4.45 4.45 0 00-.715 1.088c-1.301 2.892-1.99 5.914-1.917 9.09.022.949.2 1.87.602 2.733.405.864.998 1.506 2.035 1.546.807.033 1.497-.254 2.084-.796.557-.512.954-1.14 1.26-1.82 1.057-2.331 1.524-4.79 1.576-7.338zm47.512 10.737c-1.046.663-2.11 1.132-3.274 1.357-2.681.522-5.087-.054-7.1-1.915-1.329-1.23-1.435-3-.367-4.465.856-1.175 2.04-1.953 3.301-2.63a7.138 7.138 0 013.607-.863c1.136.027 2.271-.008 3.404.016.337.008.378-.154.38-.404a22.29 22.29 0 00-.101-2.49c-.078-.802-.197-1.59-.497-2.343-.502-1.265-1.415-1.91-2.678-1.874-.82.022-1.458.436-1.986 1.015-1.032 1.13-1.744 2.424-1.936 3.962-.039.303-.022.612-.028.92-.011.518-.372.821-.885.74-.922-.146-1.832-1.208-1.723-2.12.258-2.188 1.044-4.179 2.462-5.882.847-1.018 2.004-1.386 3.327-1.332 2.116.09 3.909.907 5.404 2.372 1.097 1.078 1.635 2.4 1.637 3.948.006 2.803.041 5.608.066 8.41.014 1.547.035 3.09.049 4.637.005.5-.209.799-.693.948-.47.146-.938.121-1.408-.028-.486-.154-1.023-.834-.961-1.397.016-.173 0-.352 0-.582zm-4.949-1.032c1.521-.021 2.811-.604 3.911-1.627.533-.493.845-1.11.962-1.828.16-.986-.195-1.565-1.19-1.728-1.815-.295-3.559-.048-5.191.823-.527.282-.964.678-1.201 1.235-.491 1.167-.26 2.202.975 2.768a3.909 3.909 0 001.734.357zm-10.999 1.03c-1.046.666-2.114 1.126-3.273 1.362-2.497.5-4.768-.006-6.756-1.59-1.731-1.378-1.929-3.469-.454-5.115 1.442-1.611 3.23-2.7 5.395-3.098a4.9 4.9 0 01.891-.062c1.226-.006 2.45-.003 3.673-.003.467 0 .467 0 .473-.485a21.68 21.68 0 00-.131-2.697c-.086-.766-.247-1.519-.548-2.24-.759-1.797-2.957-2.274-4.35-.893-1.364 1.352-2.244 2.952-2.187 4.929.028.88-.64 1.102-1.295.798-.97-.446-1.454-1.286-1.288-2.353.296-1.917 1.007-3.677 2.171-5.234.874-1.173 2.08-1.682 3.552-1.622 1.994.078 3.706.812 5.176 2.128 1.247 1.119 1.89 2.508 1.896 4.195.008 2.873.04 5.746.065 8.62.013 1.464.036 2.932.049 4.397.006.563-.28.904-.836 1.018-.478.097-.956.09-1.397-.136-.527-.268-.804-.709-.82-1.302-.011-.19-.006-.376-.006-.617zm-4.976-1.03c1.567-.021 2.888-.622 4.004-1.695.415-.398.685-.89.831-1.448.318-1.221-.065-1.91-1.279-2.075-1.72-.235-3.386-.005-4.945.802-.465.241-.871.558-1.144 1.013-.599.993-.657 2.41.856 3.065.536.23 1.092.347 1.677.339zm-14.427 2.524c-1.784-.021-3.08-.29-4.194-1.14-1.144-.872-1.739-2.082-2.078-3.436-.408-1.633-.44-3.293-.288-4.956a24.49 24.49 0 011.714-7.091c.334-.818.753-1.59 1.309-2.283.987-1.224 2.236-1.6 3.749-1.203 1.544.407 2.801 1.287 3.97 2.321.768.682 1.444 1.443 1.906 2.375.695 1.403.574 2.827.046 4.232-1.024 2.738-4.112 4.84-7.046 4.842-.427 0-.788-.179-1.155-.35-.377-.173-.739-.384-1.14-.503-.237-.07-.324-.014-.313.241.043 1.013.13 2.017.592 2.944.47.947 1.225 1.421 2.309 1.43 1.413.008 2.549-.578 3.545-1.512.612-.574 1.111-1.24 1.624-1.895.104-.133.22-.258.327-.385.344-.411.749-.642 1.307-.441.537.192.795.59.872 1.135.154 1.115-.231 2.074-1.006 2.832-1.787 1.747-3.934 2.732-6.05 2.843zm-.459-8.96c.837 0 1.5-.241 2.13-.777 1.904-1.622 2.141-4.788.495-6.667-.289-.328-.628-.574-1.049-.702-1.006-.303-1.975.038-2.67 1.013a7.493 7.493 0 00-1.418 4.769c.051 1.386 1.13 2.364 2.512 2.364zm-24.677-8.948c-.062 1.038-.323 1.964-.521 2.903a9.715 9.715 0 00-.228 2.002c.008 3.021.01 6.043 0 9.066-.003.91.173 1.787.385 2.664.12.493-.195.97-.706.997-1.383.067-2.643-.504-2.649-2.33-.013-5.418-.005-10.836-.008-16.258 0-.17.052-.257.201-.338 1.127-.606 2.165-.368 3.17.36.34.239.413.61.356.934zm-1.708-9.22c1.717 0 2.896 1.473 2.472 3.095-.198.758-.717 1.14-1.635 1.203-1.187.08-2.502-.924-2.684-2.091-.169-1.08.258-2.193 1.847-2.207zM55.083 26.98c.199.011.41.125.535.363.587 1.146 1.109 2.315 1.443 3.561.04.152.046.311.073.468.022.133.033.269-.108.336-.142.068-.253-.027-.343-.119-.179-.184-.372-.36-.519-.571a19.987 19.987 0 01-1.77-3.014c-.242-.507.083-1.032.69-1.024zm-7.879 5.71a.578.578 0 01.391.118c1.299.91 2.605 1.812 3.765 2.898.106.1.316.203.215.376-.109.187-.304.057-.454 0-1.51-.558-2.906-1.346-4.308-2.12-.275-.152-.372-.507-.272-.81.09-.27.364-.46.663-.463zm19.618-5.72c.505 0 .86.498.635.95-.66 1.322-1.434 2.575-2.388 3.713-.076.09-.163.154-.282.1-.16-.073-.114-.217-.087-.339.2-.888.51-1.743.853-2.586.195-.484.413-.96.63-1.438a.654.654 0 01.638-.4zm7.151 5.578c.353 0 .57.149.688.433.125.309.046.607-.242.815a18.7 18.7 0 01-1.035.7c-.856.535-1.695 1.104-2.616 1.526a2.845 2.845 0 01-.247.106c-.09.032-.19.1-.267-.014-.065-.094-.019-.19.038-.273.212-.3.462-.572.726-.826a46.554 46.554 0 012.415-2.21c.165-.14.337-.276.54-.257zm.038 10.732c-.07-.003-.138-.009-.21-.011-.094 0-.178-.02-.22-.117-.043-.105-.002-.192.069-.268.18-.19.385-.341.616-.46a23.63 23.63 0 013.125-1.376c.491-.17.899.12.858.599-.016.19-.095.36-.269.433a17.387 17.387 0 01-3.969 1.2zm-26.625-.44c-.959-.05-1.76-.11-2.556-.232-.377-.057-.598-.236-.633-.523-.049-.39.234-.728.625-.688a18.68 18.68 0 013.466.693c.15.046.283.141.424.214.103.054.177.13.152.26-.022.114-.117.147-.212.18-.467.159-.948.097-1.266.097z" fill="#141820"/><path d="M59.051 57.35c1.435-.602 2.902-.93 4.456-.585-1.44.555-2.937.644-4.456.585zm2.195-13.735c.204.395.362.772.218 1.205-.06.181-.147.347-.307.46-.174.125-.348.125-.53.02-.19-.109-.21-.282-.163-.464.125-.484.4-.874.782-1.221zM59.508 60.6c.882-.407 2.76-.502 3.134-.044-1.03.276-2.048.287-3.135.043z" fill="#141820"/></g><defs><clipPath id="clip0_1_164"><path fill="#fff" d="M0 0h193v89H0z"/></clipPath></defs></svg>