<svg width="32" height="32" fill="none" xmlns="http://www.w3.org/2000/svg"><path d="M17.247 7.25a6.71 6.71 0 011.25 3.9v1.35a1.92 1.92 0 001.864-1.455l.136-.545.37.443a3.937 3.937 0 01-.036 5.084 1.384 1.384 0 102.132 1.765l1.034-1.292 1 2.5a8.74 8.74 0 01-2.191 8.691l-.127.126a9.159 9.159 0 01-6.476 2.683h-1.02A9.16 9.16 0 018.12 15.507l4.048-4.9a3.369 3.369 0 00.481-3.512 3.367 3.367 0 011.21-4.17L15.996 1.5v1.85a6.71 6.71 0 001.25 3.9z" fill="url(#paint0_linear_1_95)"/><path d="M19.689 27.088l.004-.004A6.214 6.214 0 0021.257 21l-1.454 1.455a1.477 1.477 0 01-2.522-.979 1.48 1.48 0 01.34-1.013 3.907 3.907 0 00.494-4.248L15.758 11.5l-.363 3.988a3.566 3.566 0 01-1.323 2.46l-2.061 1.65a4.671 4.671 0 00-1.753 3.647v.567a4.672 4.672 0 004.717 4.671l1.445-.014a4.671 4.671 0 003.269-1.38z" fill="#FDD04A"/><path d="M7.5 12a.5.5 0 01-.5-.5v-1a.5.5 0 011 0v1a.5.5 0 01-.5.5z" fill="#FE691E"/><path d="M9 9.5a.5.5 0 01-.5-.5V8a.5.5 0 111 0v1a.5.5 0 01-.5.5z" fill="#FF8D54"/><path d="M7 7.5a.5.5 0 01-.5-.5V6a.5.5 0 111 0v1a.5.5 0 01-.5.5z" fill="#FFB895"/><path d="M24.5 13.5a.5.5 0 01-.5-.5v-1a.5.5 0 011 0v1a.5.5 0 01-.5.5z" fill="#FE691E"/><path d="M23 10a.5.5 0 01-.5-.5v-1a.5.5 0 011 0v1a.5.5 0 01-.5.5z" fill="#FF8D54"/><path d="M25 8.5a.5.5 0 01-.5-.5V6.5a.5.5 0 011 0V8a.5.5 0 01-.5.5z" fill="#FFB895"/><defs><linearGradient id="paint0_linear_1_95" x1="15.694" y1="1.5" x2="15.694" y2="30.5" gradientUnits="userSpaceOnUse"><stop stop-color="#FF9159"/><stop offset=".688" stop-color="#FF7631"/><stop offset="1" stop-color="#FF6A1F"/></linearGradient></defs></svg>